<?xml version="1.0" standalone="no"?>
<!DOCTYPE svg PUBLIC "-//W3C//DTD SVG 20010904//EN"
 "http://www.w3.org/TR/2001/REC-SVG-20010904/DTD/svg10.dtd">
<svg version="1.0" xmlns="http://www.w3.org/2000/svg"
 width="300.000000pt" height="302.000000pt" viewBox="0 0 300.000000 302.000000"
 preserveAspectRatio="xMidYMid meet">

<g transform="translate(0.000000,302.000000) scale(0.100000,-0.100000)"
fill="#000000" stroke="none">
<path d="M1336 2980 c-519 -66 -946 -417 -1099 -905 -46 -149 -60 -260 -54
-433 7 -183 26 -280 87 -437 23 -58 40 -109 37 -111 -3 -3 -14 -1 -25 5 -32
17 -99 13 -141 -9 -74 -37 -118 -116 -108 -191 8 -59 123 -223 247 -352 336
-352 783 -533 1270 -514 479 18 914 233 1219 604 155 186 205 291 187 388 -8
43 -59 103 -103 121 -38 16 -111 18 -147 4 -14 -5 -26 -8 -26 -6 0 2 18 58 40
124 56 166 73 291 66 467 -8 207 -46 355 -136 535 -67 132 -138 229 -244 335
-243 240 -538 368 -879 380 -67 2 -153 0 -191 -5z m406 -41 c504 -101 896
-496 1005 -1009 24 -117 24 -372 0 -487 -41 -192 -150 -434 -212 -473 -53 -33
-97 -36 -147 -11 -55 27 -80 62 -86 122 -4 41 0 55 31 106 42 69 87 181 113
278 27 103 25 351 -4 456 -46 171 -140 338 -254 452 -305 304 -761 380 -1142
191 -258 -128 -442 -353 -517 -634 -20 -72 -23 -110 -23 -245 0 -135 3 -173
23 -245 24 -92 79 -215 129 -294 37 -58 39 -84 11 -142 -26 -56 -72 -84 -134
-84 -64 0 -104 26 -149 100 -119 192 -186 432 -186 664 0 403 188 780 509
1022 296 222 669 307 1033 233z m-134 -304 c35 -4 102 -17 148 -31 441 -127
739 -573 684 -1019 -17 -140 -39 -211 -103 -335 -65 -126 -74 -178 -43 -237
31 -61 107 -100 177 -90 22 3 39 2 39 -2 0 -16 -114 -142 -177 -196 -248 -213
-523 -315 -847 -315 -280 0 -492 64 -726 218 -84 56 -280 239 -280 262 0 8 10
9 29 5 37 -8 101 9 135 36 36 28 66 90 66 136 0 28 -14 61 -50 123 -227 386
-171 854 141 1169 139 141 334 242 521 270 127 19 140 20 286 6z m1259 -1521
c52 -39 68 -71 68 -137 0 -57 -4 -69 -48 -139 -374 -600 -1054 -892 -1747
-752 -282 57 -589 223 -804 432 -138 136 -286 342 -286 398 1 46 35 109 76
140 31 24 47 29 94 29 75 0 110 -25 179 -129 68 -101 242 -276 341 -343 452
-304 1023 -307 1475 -8 149 99 335 298 403 430 23 46 56 79 92 94 38 16 127 7
157 -15z"/>
<path d="M1311 2896 c-72 -40 -67 -175 8 -206 37 -15 83 -6 107 22 14 15 19
36 19 85 0 59 -3 67 -28 89 -31 27 -69 30 -106 10z m81 -37 c29 -39 28 -116
-1 -141 -30 -24 -37 -23 -66 7 -33 32 -36 114 -4 146 25 25 46 22 71 -12z"/>
<path d="M1531 2892 c13 -21 3 -168 -12 -178 -22 -13 -6 -24 36 -24 45 0 61
13 27 22 -27 7 -18 68 9 68 11 0 22 -7 25 -15 4 -8 10 -12 15 -9 12 7 11 64
-1 64 -5 0 -10 -5 -10 -11 0 -6 -10 -9 -22 -7 -20 3 -23 8 -20 43 2 22 5 42 8
44 9 9 54 -19 54 -34 0 -8 5 -15 10 -15 6 0 10 13 10 29 0 24 -5 29 -31 35
-17 3 -49 6 -70 6 -35 0 -38 -2 -28 -18z"/>
<path d="M1855 2841 c8 -27 -51 -169 -73 -174 -12 -2 -6 -9 20 -22 38 -19 62
-15 40 7 -8 8 -7 18 4 39 8 16 18 29 23 29 10 0 71 -21 71 -24 0 -19 -25 -66
-35 -66 -30 0 -24 -20 11 -35 46 -19 47 -19 39 4 -8 26 53 169 74 173 11 3 7
9 -16 21 -44 24 -53 22 -47 -10 3 -16 -1 -36 -8 -46 -12 -17 -16 -17 -50 -3
-35 15 -36 17 -25 45 6 16 20 32 31 36 19 5 17 8 -14 25 -45 24 -53 25 -45 1z"/>
<path d="M1037 2834 c-15 -8 -25 -19 -22 -25 4 -5 11 -7 16 -4 5 4 9 -14 9
-39 0 -25 -4 -46 -8 -46 -5 0 -20 13 -35 28 -21 22 -24 31 -15 40 16 16 -12
16 -47 0 -23 -10 -34 -28 -17 -28 4 0 30 -18 57 -41 50 -42 82 -93 64 -104 -5
-4 -7 -10 -4 -15 3 -5 21 -2 40 7 37 17 46 33 20 33 -31 0 -45 89 -25 160 12
43 3 53 -33 34z"/>
<path d="M2097 2674 c-7 -80 -28 -124 -58 -124 -11 0 -19 -3 -19 -7 0 -14 69
-53 75 -43 3 5 1 11 -5 15 -18 11 21 54 78 85 30 16 62 30 69 30 21 0 15 16
-12 34 -31 21 -38 20 -31 -2 4 -12 -3 -23 -23 -35 -41 -24 -48 -22 -43 19 3
25 10 38 23 41 27 7 24 15 -15 40 l-33 21 -6 -74z"/>
<path d="M785 2699 c-33 -22 -64 -45 -68 -49 -12 -11 11 -50 29 -50 11 0 12 4
5 19 -8 14 -7 22 4 31 9 7 17 11 19 9 46 -55 95 -137 90 -151 -7 -23 1 -23 37
3 30 21 40 45 15 36 -17 -7 -111 126 -101 142 9 15 32 14 38 -1 3 -9 8 -10 15
-3 8 7 6 17 -6 33 l-18 23 -59 -42z"/>
<path d="M615 2560 c-26 -27 -26 -35 -1 -31 15 3 127 -113 122 -126 -10 -25
12 -21 39 7 26 27 26 35 1 31 -5 -1 -36 24 -68 56 -41 40 -56 63 -52 75 8 27
-9 22 -41 -12z"/>
<path d="M2300 2577 c0 -19 -116 -130 -128 -123 -6 3 -13 2 -16 -2 -3 -5 15
-28 39 -52 37 -36 50 -43 83 -43 71 0 133 68 118 128 -7 27 -72 105 -87 105
-5 0 -9 -6 -9 -13z m65 -106 c-3 -14 -18 -38 -33 -53 -38 -38 -73 -44 -103
-18 l-24 20 65 60 65 61 18 -23 c12 -14 16 -30 12 -47z"/>
<path d="M512 2447 c-27 -29 -29 -78 -4 -100 23 -21 42 -21 86 0 29 13 38 14
51 3 19 -16 19 -44 0 -60 -12 -10 -18 -10 -29 -1 -11 9 -16 9 -22 0 -7 -13 21
-39 42 -39 7 0 22 16 34 35 26 42 21 77 -14 100 -21 14 -27 14 -69 -2 -42 -16
-49 -16 -62 -2 -22 22 -9 51 21 47 30 -4 35 11 8 28 -18 13 -23 12 -42 -9z"/>
<path d="M2475 2380 c7 -12 -129 -102 -149 -98 -22 5 -18 -12 16 -69 29 -47
33 -50 55 -40 29 13 30 27 0 27 -12 0 -28 9 -34 19 -11 17 -9 23 14 40 14 12
29 21 33 21 15 0 30 -28 24 -44 -8 -20 5 -20 34 0 20 14 22 42 2 29 -4 -3 -14
2 -21 11 -11 14 -9 19 11 35 14 10 30 19 36 19 17 0 25 -27 17 -58 -6 -26 -6
-26 16 -12 12 8 22 20 22 25 0 20 -56 105 -69 105 -7 0 -10 -4 -7 -10z"/>
<path d="M395 2254 c-15 -16 -55 -87 -55 -100 0 -3 7 -3 16 0 22 9 164 -59
164 -78 0 -26 18 -18 35 14 20 38 19 43 -5 35 -21 -7 -73 22 -64 36 3 5 27 9
53 9 46 0 71 12 71 35 0 8 -20 10 -60 7 -50 -4 -60 -2 -60 11 0 19 -37 47 -62
47 -9 0 -24 -7 -33 -16z m63 -36 c15 -15 16 -58 2 -58 -6 0 -24 7 -40 15 -29
15 -38 34 -23 48 11 11 48 8 61 -5z"/>
<path d="M2587 2177 c-7 -18 -149 -69 -170 -61 -20 7 -20 6 -6 -35 13 -37 13
-37 39 -11 22 22 60 27 60 7 0 -7 -16 -28 -35 -47 -27 -27 -32 -37 -24 -52 11
-20 29 -24 29 -7 0 6 12 26 28 43 24 27 31 30 54 22 20 -7 33 -5 52 8 30 19
32 43 10 103 -17 44 -28 53 -37 30z m23 -72 c0 -32 -41 -55 -65 -35 -23 19
-18 37 13 48 43 16 52 14 52 -13z"/>
<path d="M288 1998 c-17 -63 -16 -80 3 -61 13 13 168 -29 180 -48 11 -18 13
-14 32 56 16 56 16 61 0 73 -20 14 -43 16 -43 2 0 -5 7 -13 16 -18 12 -7 15
-17 10 -36 -7 -28 -20 -32 -60 -17 -18 8 -23 15 -19 30 3 12 12 21 19 21 27 0
14 18 -18 24 -34 7 -50 0 -29 -14 8 -4 11 -15 8 -24 -7 -17 -43 -21 -66 -7
-18 12 -5 48 20 54 26 7 15 27 -14 27 -19 0 -25 -10 -39 -62z"/>
<path d="M2470 1912 c0 -37 8 -44 31 -29 23 14 36 2 41 -38 3 -27 0 -30 -24
-30 -25 1 -28 -3 -28 -32 0 -34 16 -54 25 -31 3 8 46 34 95 58 121 59 119 71
-12 93 -57 10 -104 22 -106 28 -8 20 -22 7 -22 -19z m165 -42 c6 -10 -55 -40
-67 -33 -5 2 -8 13 -8 24 0 15 7 19 34 19 19 0 38 -4 41 -10z"/>
<path d="M257 1853 c-10 -9 -9 -63 1 -63 4 0 13 5 18 10 10 10 115 -21 137
-41 5 -4 -23 -14 -61 -23 -86 -19 -82 -19 -82 -1 0 31 -18 13 -23 -22 -5 -47
-1 -56 21 -42 9 6 58 20 107 33 120 30 121 45 4 94 -47 20 -93 43 -101 49 -8
7 -18 10 -21 6z"/>
<path d="M2497 1714 c-4 -4 -7 -32 -7 -61 0 -44 5 -58 25 -79 27 -27 59 -26
82 4 12 14 14 14 31 -1 42 -38 80 -7 82 68 2 68 2 71 -12 57 -19 -19 -168 -16
-182 4 -6 8 -15 12 -19 8z m98 -64 c10 -16 -23 -60 -45 -60 -22 0 -44 34 -36
56 6 16 71 19 81 4z m93 -22 c-2 -18 -10 -23 -33 -23 -23 0 -31 5 -33 23 -3
19 1 22 33 22 32 0 36 -3 33 -22z"/>
<path d="M450 1606 c0 -21 -169 -35 -181 -15 -14 23 -21 2 -14 -42 6 -37 9
-41 20 -26 15 21 163 40 183 24 18 -14 22 -6 15 36 -5 35 -23 53 -23 23z"/>
<path d="M2476 1498 c-7 -36 -2 -45 17 -29 21 17 40 -10 31 -44 -8 -33 -33
-44 -49 -21 -15 20 -20 14 -30 -33 -7 -31 -5 -33 11 -26 11 5 64 12 119 16
116 8 105 6 105 22 0 6 -41 38 -90 71 -50 32 -90 62 -90 67 0 23 -18 5 -24
-23z m115 -73 c37 -19 29 -35 -17 -35 -34 0 -39 5 -28 34 8 20 8 20 45 1z"/>
<path d="M395 1454 c-44 -13 -90 -22 -103 -19 -20 5 -22 3 -16 -22 4 -16 11
-32 15 -37 9 -10 10 -8 13 15 1 11 117 52 124 44 3 -3 -23 -34 -57 -71 -49
-52 -60 -70 -55 -87 9 -31 13 -33 27 -15 15 20 149 60 171 52 19 -7 22 17 4
49 -11 21 -11 21 -18 2 -6 -17 -107 -61 -118 -50 -2 2 21 33 52 68 31 35 56
72 56 81 0 19 4 20 -95 -10z"/>
<path d="M2402 1265 c-29 -60 -28 -96 4 -134 68 -81 174 -47 209 68 6 20 4 23
-9 18 -21 -8 -166 62 -166 80 0 26 -17 12 -38 -32z m101 -51 c39 -20 74 -38
76 -40 11 -10 -45 -54 -68 -54 -32 0 -86 32 -101 59 -11 22 -4 71 11 71 5 0
42 -16 82 -36z"/>
<path d="M498 1226 c-20 -7 -53 -23 -72 -34 -20 -12 -43 -19 -51 -16 -20 8
-19 -10 1 -41 16 -24 38 -26 28 -2 -5 15 115 81 140 76 28 -6 43 -35 30 -56
-18 -29 -124 -84 -147 -77 -10 3 -18 2 -15 -2 29 -62 48 -83 48 -51 0 6 24 25
53 41 94 52 110 76 86 129 -9 19 -49 49 -62 47 -1 -1 -19 -7 -39 -14z"/>
<path d="M1294 2595 c-292 -63 -534 -257 -659 -529 -58 -125 -79 -230 -79
-386 1 -186 39 -323 134 -480 23 -38 44 -87 47 -108 11 -80 -36 -165 -112
-202 -25 -12 -45 -26 -45 -30 0 -13 118 -118 195 -172 139 -99 331 -178 505
-209 104 -18 335 -16 435 6 188 39 356 113 497 217 87 65 178 149 178 166 0 6
-20 20 -44 31 -85 37 -133 143 -106 227 7 21 27 61 45 89 86 137 127 291 127
470 0 449 -300 816 -745 910 -84 18 -290 18 -373 0z m439 -39 c259 -77 455
-244 571 -486 67 -138 89 -250 83 -415 -3 -76 -12 -157 -22 -195 -16 -62 -76
-194 -130 -289 -58 -102 -15 -228 101 -297 18 -11 17 -14 -16 -49 -46 -50
-172 -143 -253 -189 -290 -162 -672 -193 -989 -80 -149 53 -294 142 -408 248
-48 45 -52 51 -35 60 45 27 95 81 111 121 28 74 16 136 -44 241 -314 547 -12
1218 608 1350 106 22 314 12 423 -20z"/>
<path d="M1410 2301 c-139 -46 -224 -158 -224 -296 0 -120 63 -218 172 -272
47 -23 70 -28 132 -28 125 1 214 56 270 167 53 108 38 243 -40 330 -58 66
-129 101 -214 104 -39 2 -82 0 -96 -5z m205 -38 c181 -94 213 -333 63 -468
-112 -101 -280 -98 -386 6 -144 143 -111 364 68 457 61 32 70 34 140 30 49 -3
89 -12 115 -25z"/>
<path d="M1385 2230 c-22 -10 -49 -26 -60 -35 -19 -15 -18 -17 37 -72 54 -54
56 -55 79 -39 29 20 68 21 95 2 19 -14 24 -11 74 39 60 61 59 69 -14 104 -56
28 -155 28 -211 1z"/>
<path d="M1632 2097 c-43 -43 -52 -59 -52 -88 0 -39 -22 -77 -52 -88 -18 -6
-20 -16 -20 -82 0 -89 9 -94 92 -52 94 48 148 145 137 244 -5 44 -35 119 -47
119 -3 0 -29 -24 -58 -53z"/>
<path d="M1256 2093 c-50 -147 34 -300 183 -329 l31 -6 0 72 c0 71 -1 74 -36
104 -26 22 -37 40 -39 65 -2 25 -15 47 -55 87 -28 30 -55 54 -60 54 -4 0 -15
-21 -24 -47z"/>
<path d="M1450 2034 c-21 -24 -1 -68 32 -72 36 -4 65 36 48 67 -13 25 -61 28
-80 5z"/>
<path d="M1730 2265 c0 -16 6 -25 15 -25 9 0 15 9 15 25 0 16 -6 25 -15 25 -9
0 -15 -9 -15 -25z"/>
<path d="M1787 2283 c-13 -12 -7 -43 8 -43 9 0 15 9 15 25 0 24 -10 32 -23 18z"/>
<path d="M1920 2265 c0 -16 6 -25 15 -25 9 0 15 9 15 25 0 16 -6 25 -15 25 -9
0 -15 -9 -15 -25z"/>
<path d="M2040 2265 c0 -16 6 -25 15 -25 9 0 15 9 15 25 0 16 -6 25 -15 25 -9
0 -15 -9 -15 -25z"/>
<path d="M836 2263 c-12 -12 -6 -43 9 -43 8 0 15 9 15 19 0 21 -13 34 -24 24z"/>
<path d="M964 2253 c4 -26 36 -29 36 -4 0 14 -6 21 -19 21 -13 0 -18 -6 -17
-17z"/>
<path d="M1020 2250 c0 -11 7 -20 15 -20 8 0 15 9 15 20 0 11 -7 20 -15 20 -8
0 -15 -9 -15 -20z"/>
<path d="M1140 2250 c0 -11 7 -20 15 -20 8 0 15 9 15 20 0 11 -7 20 -15 20 -8
0 -15 -9 -15 -20z"/>
<path d="M1937 2173 c-13 -12 -7 -43 8 -43 9 0 15 9 15 25 0 24 -10 32 -23 18z"/>
<path d="M990 2145 c0 -16 6 -25 15 -25 9 0 15 9 15 25 0 16 -6 25 -15 25 -9
0 -15 -9 -15 -25z"/>
<path d="M1850 2144 c0 -31 23 -28 28 4 2 15 -2 22 -12 22 -11 0 -16 -9 -16
-26z"/>
<path d="M2080 2150 c0 -11 7 -20 15 -20 8 0 15 9 15 20 0 11 -7 20 -15 20 -8
0 -15 -9 -15 -20z"/>
<path d="M930 2135 c0 -16 6 -25 15 -25 9 0 15 9 15 25 0 16 -6 25 -15 25 -9
0 -15 -9 -15 -25z"/>
<path d="M792 2128 c2 -13 8 -23 13 -23 6 0 11 10 13 23 2 15 -2 22 -13 22
-11 0 -15 -7 -13 -22z"/>
<path d="M840 2130 c0 -11 7 -20 15 -20 8 0 15 9 15 20 0 11 -7 20 -15 20 -8
0 -15 -9 -15 -20z"/>
<path d="M1860 2044 c0 -31 23 -28 28 4 2 15 -2 22 -12 22 -11 0 -16 -9 -16
-26z"/>
<path d="M2090 2047 c0 -19 6 -26 27 -30 16 -3 31 -3 35 0 13 7 9 43 -4 43 -7
0 -23 3 -35 6 -19 5 -23 2 -23 -19z"/>
<path d="M976 2053 c-12 -12 -6 -43 9 -43 8 0 15 9 15 19 0 21 -13 34 -24 24z"/>
<path d="M1020 2036 c0 -17 5 -26 16 -26 10 0 14 7 12 22 -5 32 -28 35 -28 4z"/>
<path d="M1960 2035 c0 -16 6 -25 15 -25 9 0 15 9 15 25 0 16 -6 25 -15 25 -9
0 -15 -9 -15 -25z"/>
<path d="M2020 2035 c0 -16 6 -25 15 -25 9 0 15 9 15 25 0 16 -6 25 -15 25 -9
0 -15 -9 -15 -25z"/>
<path d="M2190 2041 c0 -14 6 -21 19 -21 24 0 22 34 -2 38 -12 2 -17 -3 -17
-17z"/>
<path d="M1070 2024 c0 -31 23 -28 28 4 2 15 -2 22 -12 22 -11 0 -16 -9 -16
-26z"/>
<path d="M760 2014 c0 -31 23 -28 28 4 2 15 -2 22 -12 22 -11 0 -16 -9 -16
-26z"/>
<path d="M830 2020 c0 -11 7 -20 15 -20 8 0 15 9 15 20 0 11 -7 20 -15 20 -8
0 -15 -9 -15 -20z"/>
<path d="M652 1948 c2 -13 8 -23 13 -23 6 0 11 10 13 23 2 15 -2 22 -13 22
-11 0 -15 -7 -13 -22z"/>
<path d="M1990 1935 c0 -16 6 -25 15 -25 9 0 15 9 15 25 0 16 -6 25 -15 25 -9
0 -15 -9 -15 -25z"/>
<path d="M2140 1935 c0 -16 6 -25 15 -25 9 0 15 9 15 25 0 16 -6 25 -15 25 -9
0 -15 -9 -15 -25z"/>
<path d="M1902 1928 c2 -13 8 -23 13 -23 6 0 11 10 13 23 2 15 -2 22 -13 22
-11 0 -15 -7 -13 -22z"/>
<path d="M837 1933 c-13 -12 -7 -43 8 -43 9 0 15 9 15 25 0 24 -10 32 -23 18z"/>
<path d="M887 1934 c-13 -13 -7 -44 8 -44 8 0 15 7 15 15 0 8 0 18 1 22 1 10
-16 15 -24 7z"/>
<path d="M2226 1853 c-12 -12 -6 -43 9 -43 8 0 15 9 15 19 0 21 -13 34 -24 24z"/>
<path d="M2316 1853 c-14 -15 -5 -43 14 -43 13 0 20 7 20 19 0 19 -23 35 -34
24z"/>
<path d="M2170 1824 c0 -31 23 -28 28 4 2 15 -2 22 -12 22 -11 0 -16 -9 -16
-26z"/>
<path d="M2050 1820 c0 -11 7 -20 15 -20 8 0 15 9 15 20 0 11 -7 20 -15 20 -8
0 -15 -9 -15 -20z"/>
<path d="M1062 1808 c2 -12 10 -23 18 -23 22 0 19 39 -3 43 -15 3 -18 -1 -15
-20z"/>
<path d="M1147 1824 c-16 -16 -7 -44 14 -44 15 0 20 5 17 22 -3 22 -19 33 -31
22z"/>
<path d="M1830 1805 c0 -16 6 -25 15 -25 9 0 15 9 15 25 0 16 -6 25 -15 25 -9
0 -15 -9 -15 -25z"/>
<path d="M957 1814 c-15 -15 -7 -45 11 -42 9 2 17 12 17 22 0 20 -16 31 -28
20z"/>
<path d="M682 1788 c5 -32 28 -35 28 -4 0 17 -5 26 -16 26 -10 0 -14 -7 -12
-22z"/>
<path d="M930 1237 l0 -444 98 -6 c180 -12 325 -68 406 -158 l46 -51 49 54
c81 88 218 142 402 156 l94 7 3 443 2 442 -77 0 c-147 0 -291 -53 -411 -149
l-62 -51 -61 49 c-120 97 -266 151 -411 151 l-78 0 0 -443z m250 395 c79 -28
158 -69 210 -110 87 -68 80 -25 80 -473 0 -219 -3 -399 -6 -399 -3 0 -23 13
-43 29 -77 61 -214 113 -326 125 -33 4 -79 9 -102 12 l-43 5 0 421 0 421 88
-6 c48 -3 112 -15 142 -25z m830 -391 l0 -419 -31 -6 c-17 -3 -48 -6 -68 -6
-20 0 -67 -7 -105 -15 -38 -8 -71 -13 -73 -12 -2 2 35 75 82 161 47 87 85 161
85 166 0 4 -21 3 -46 -2 -25 -6 -48 -8 -50 -5 -3 3 38 91 90 196 53 105 96
193 96 195 0 2 -29 -5 -65 -17 -35 -11 -67 -19 -69 -16 -3 2 -1 22 4 44 4 22
13 66 20 98 l11 57 60 0 59 0 0 -419z m-140 404 c0 -3 -32 -69 -70 -146 l-71
-141 56 7 c30 4 55 5 55 2 0 -3 -46 -92 -101 -197 -56 -105 -100 -193 -97
-195 2 -2 28 3 57 11 29 9 54 14 57 12 2 -3 -13 -56 -34 -119 l-37 -114 -58
-30 c-32 -16 -76 -45 -98 -63 l-39 -33 0 410 0 410 62 50 c63 51 161 105 233
127 42 13 85 18 85 9z"/>
<path d="M1179 1398 c-9 -7 -23 -25 -33 -41 -13 -22 -22 -26 -41 -21 -14 3
-39 1 -55 -6 -42 -17 -49 -53 -22 -103 21 -39 21 -40 2 -66 -49 -70 -27 -124
54 -127 43 -2 49 -5 65 -35 36 -68 92 -71 131 -6 17 27 25 31 63 32 25 0 52 7
61 14 22 18 20 69 -3 105 -19 28 -19 28 5 64 45 66 19 117 -62 117 -33 0 -46
4 -50 17 -18 57 -78 86 -115 56z m77 -25 c31 -33 28 -53 -10 -66 -21 -7 -37
-5 -63 7 -29 14 -32 19 -23 35 15 29 40 51 56 51 8 0 26 -12 40 -27z m-134
-59 c12 -11 -11 -75 -33 -94 -24 -19 -24 -19 -41 1 -21 24 -24 69 -6 87 12 12
70 17 80 6z m52 -10 c23 -9 20 -19 -10 -33 -32 -14 -35 -12 -27 17 6 23 12 26
37 16z m217 -4 c25 -14 25 -61 0 -91 l-20 -24 -25 25 c-13 14 -28 42 -31 63
-7 36 -7 37 25 37 17 0 40 -5 51 -10z m-94 -15 c3 -9 3 -18 0 -21 -9 -9 -48
16 -42 27 9 14 35 11 42 -6z m-49 -19 c48 -25 64 -50 60 -97 -3 -40 -7 -46
-45 -67 -46 -25 -66 -24 -107 9 -22 17 -26 28 -26 72 0 49 2 53 38 74 45 27
46 27 80 9z m-138 -88 c0 -30 -1 -31 -16 -16 -9 9 -14 24 -11 32 11 27 27 17
27 -16z m239 9 c8 -10 7 -17 -1 -25 -19 -19 -28 -14 -28 13 0 27 12 32 29 12z
m-255 -48 c15 -18 26 -43 26 -60 0 -27 -3 -29 -38 -29 -42 0 -62 14 -62 43 0
21 30 77 41 77 4 0 19 -14 33 -31z m300 -18 c25 -55 10 -81 -46 -81 l-41 0 6
36 c6 33 40 84 57 84 4 0 15 -17 24 -39z m-233 -31 c25 -14 24 -30 -1 -30 -11
0 -20 2 -20 4 0 2 -3 11 -6 20 -7 19 0 20 27 6z m139 -2 c0 -26 -17 -40 -39
-33 -27 8 -27 19 2 33 30 14 37 14 37 0z m-55 -42 c41 -18 42 -22 12 -60 -19
-24 -28 -28 -50 -22 -23 5 -65 61 -55 71 3 4 47 22 56 24 1 1 18 -6 37 -13z"/>
<path d="M1192 1198 c-16 -16 -15 -33 4 -48 22 -19 54 12 38 37 -14 22 -27 26
-42 11z"/>
<path d="M2757 983 c-13 -12 -7 -41 10 -47 23 -9 47 22 32 41 -12 14 -32 17
-42 6z"/>
<path d="M180 955 c-10 -12 -10 -18 0 -30 16 -19 39 -19 46 0 6 15 -11 45 -26
45 -4 0 -13 -7 -20 -15z"/>
<path d="M2676 864 c-4 -10 -2 -22 3 -27 15 -15 46 -3 46 18 0 26 -40 33 -49
9z"/>
<path d="M254 846 c-9 -24 4 -48 23 -44 24 4 24 52 0 56 -9 2 -20 -4 -23 -12z"/>
<path d="M2594 755 c-4 -9 -2 -21 4 -27 16 -16 47 -5 47 17 0 26 -42 34 -51
10z"/>
<path d="M326 731 c-11 -18 6 -42 28 -39 29 4 29 42 -1 46 -11 2 -24 -1 -27
-7z"/>
<path d="M2365 690 c-4 -7 8 -8 37 -4 57 9 61 14 10 14 -22 0 -44 -5 -47 -10z"/>
<path d="M2430 655 c-61 -63 -182 -147 -291 -204 -103 -54 -302 -126 -319
-116 -5 3 -10 15 -10 26 0 27 44 43 83 29 17 -5 32 -8 34 -6 7 6 -59 26 -87
26 -36 0 -54 -23 -47 -59 5 -23 2 -31 -11 -34 -13 -3 -11 -6 10 -15 19 -8 28
-20 33 -49 3 -21 10 -45 15 -53 17 -27 22 -1 10 50 -7 28 -10 54 -6 57 12 12
109 42 117 37 5 -3 9 -12 9 -20 0 -10 -7 -13 -24 -8 -27 6 -59 -19 -54 -45 5
-24 54 -38 80 -22 17 11 22 11 29 0 17 -28 20 2 5 47 -20 60 -21 59 9 72 21
10 26 9 36 -9 6 -11 8 -27 5 -34 -9 -25 31 -28 54 -5 l22 22 19 -21 c10 -11
19 -25 19 -31 0 -13 17 -13 25 1 4 6 0 16 -8 22 -8 7 -24 33 -35 59 l-21 47
50 31 c28 17 54 28 60 25 17 -11 9 -35 -11 -35 -10 0 -24 -9 -30 -19 -20 -38
42 -70 70 -36 10 12 16 13 27 4 18 -16 29 -3 13 16 -7 8 -10 25 -6 39 6 26 -8
46 -17 24 -4 -10 -8 -9 -16 2 -15 21 -15 21 35 58 52 38 79 34 40 -7 -16 -16
-24 -34 -21 -43 6 -16 47 -38 68 -37 7 0 2 4 -11 9 -31 13 -38 38 -18 58 16
16 19 15 41 -12 39 -49 50 -25 11 26 -35 46 -44 68 -28 68 5 0 25 17 46 37
l37 37 21 -22 c19 -18 20 -25 10 -47 -16 -34 -45 -34 -36 0 4 18 2 25 -9 25
-14 0 -30 -44 -19 -55 12 -11 70 -4 82 10 7 9 21 13 31 10 29 -9 23 7 -16 45
-19 19 -35 42 -35 52 0 30 -23 21 -70 -27z m-160 -233 c0 -5 -6 -17 -14 -28
-11 -15 -17 -16 -27 -7 -16 16 -4 43 21 43 11 0 20 -4 20 -8z m-149 -34 c10
-18 8 -24 -7 -35 -25 -18 -29 -17 -42 12 -9 20 -8 26 6 34 25 15 30 13 43 -11z
m-141 -96 c0 -17 -39 -44 -55 -39 -15 7 -20 28 -8 40 9 10 63 9 63 -1z"/>
<path d="M535 630 c15 -16 16 -22 5 -35 -7 -8 -20 -14 -29 -13 -13 2 -16 -7
-17 -47 -1 -27 0 -39 3 -25 8 41 20 45 49 17 22 -22 24 -30 14 -42 -6 -8 -10
-19 -8 -26 2 -6 21 10 42 35 41 51 44 52 70 33 18 -13 17 -16 -13 -57 -30 -41
-40 -70 -23 -70 4 0 22 23 40 51 18 27 37 47 42 44 6 -3 10 0 10 7 0 8 -13 21
-28 30 -15 9 -56 39 -91 67 -64 51 -99 68 -66 31z m65 -55 c26 -31 -12 -59
-49 -36 -10 7 -11 13 -2 30 14 25 33 27 51 6z"/>
<path d="M883 483 c-7 -2 -13 -16 -13 -29 0 -22 -3 -23 -20 -14 -23 12 -25 8
-9 -18 9 -14 7 -29 -10 -66 -23 -53 -25 -66 -13 -66 5 0 19 23 32 51 28 59 33
63 57 50 10 -6 35 -17 56 -25 36 -15 46 -29 28 -40 -5 -3 -14 1 -21 9 -16 19
-54 19 -70 0 -18 -22 12 -65 46 -65 15 0 24 -5 22 -13 -2 -7 1 -15 6 -17 4 -3
17 17 28 45 11 27 21 51 22 53 2 1 24 -3 50 -10 50 -13 63 -31 19 -26 -20 2
-28 -2 -31 -16 -3 -13 0 -16 10 -10 7 5 25 7 40 5 20 -2 28 2 28 13 0 20 19
21 26 1 17 -43 -40 -104 -78 -84 -26 14 -22 27 10 31 22 4 24 6 10 12 -25 11
-48 0 -48 -22 0 -28 25 -45 56 -38 19 5 30 2 39 -11 12 -16 15 -11 26 45 12
58 15 62 41 62 l29 0 -7 -65 c-4 -43 -3 -65 4 -65 5 0 13 27 17 60 5 41 11 60
21 60 30 0 12 19 -23 26 -80 14 -208 45 -237 58 -17 8 -57 24 -88 36 -58 22
-68 36 -46 58 19 19 38 14 69 -19 16 -17 29 -26 29 -19 0 6 -13 25 -29 41 -28
27 -50 34 -78 22z m75 -159 c28 -19 28 -30 0 -37 -30 -8 -63 20 -47 40 15 17
20 16 47 -3z"/>
<path d="M1518 293 c-54 -2 -98 -8 -98 -13 0 -6 11 -10 24 -10 34 0 41 -16 15
-33 -18 -13 -19 -18 -7 -36 13 -22 54 -39 65 -28 3 4 14 -4 24 -16 18 -22 18
-21 19 46 0 64 1 67 24 67 26 0 36 -21 36 -77 0 -27 15 -53 24 -42 2 2 0 30
-4 63 -5 43 -3 59 7 63 18 7 6 23 -15 21 -9 -1 -61 -4 -114 -5z m12 -52 c0
-32 -21 -54 -46 -49 -25 4 -28 25 -5 31 14 3 18 11 14 26 -4 16 -1 21 16 21
16 0 21 -6 21 -29z"/>
<path d="M2213 288 c8 -21 -20 -45 -58 -51 l-30 -4 33 -2 c18 0 42 4 53 9 21
12 26 45 7 56 -7 5 -9 2 -5 -8z"/>
</g>
</svg>
